<?xml version="1.0" encoding="UTF-8" standalone="no"?>
<svg
   height="38"
   fill="none"
   viewBox="0 0 287 40"
   class="hidden lg:block"
   version="1.1"
   id="svg27"
   sodipodi:docname="logo.svg"
   inkscape:version="1.2 (dc2aeda, 2022-05-15)"
   xmlns:inkscape="http://www.inkscape.org/namespaces/inkscape"
   xmlns:sodipodi="http://sodipodi.sourceforge.net/DTD/sodipodi-0.dtd"
   xmlns="http://www.w3.org/2000/svg"
   xmlns:svg="http://www.w3.org/2000/svg">
  <sodipodi:namedview
     id="namedview29"
     pagecolor="#ffffff"
     bordercolor="#000000"
     borderopacity="0.25"
     inkscape:showpageshadow="2"
     inkscape:pageopacity="0.0"
     inkscape:pagecheckerboard="0"
     inkscape:deskcolor="#d1d1d1"
     showgrid="false"
     inkscape:zoom="3.0376253"
     inkscape:cx="120.98266"
     inkscape:cy="45.759429"
     inkscape:window-width="1728"
     inkscape:window-height="828"
     inkscape:window-x="0"
     inkscape:window-y="38"
     inkscape:window-maximized="0"
     inkscape:current-layer="svg27" />
  <path
     fill="#ffffff"
     d="M -5.2083056,2.0890882 H 271.42186 V 37.936851 H -5.2083056 Z"
     id="path2"
     style="stroke-width:1.13541" />
  <g
     clip-path="url(#a)"
     id="g10"
     transform="matrix(0.97717819,0,0,0.89619407,-8.5886706,2.3130294)">
    <g
       clip-path="url(#b)"
       id="g8">
      <g
         clip-path="url(#c)"
         id="g6">
        <path
           fill="#000000"
           d="m 112.424,15.144 v -2.62 H 99.972 l -3.38,2.62 v 3.597 l 3.38,2.62 h 10.852 v 3.693 h -13.56 v 2.617 h 12.787 l 3.382,-2.617 V 21.36 l -3.382,-2.62 H 99.2 v -3.597 h 13.224 z M 47.249,12.524 H 44.874 L 36.16,27.671 h 3.013 l 6.893,-11.98 6.884,11.98 h 3.01 L 47.25,12.524 Z m 25.898,0 H 56.305 v 2.62 h 7.118 V 27.67 h 2.606 V 15.144 h 7.118 z m 61.311,0 h -16.839 v 2.62 h 7.115 V 27.67 h 2.609 V 15.144 h 7.115 z m -104.978,0 H 16.02 v 15.147 h 13.46 l 3.381,-2.62 v -9.907 l -3.38,-2.62 z m -10.852,2.62 h 11.625 v 9.91 H 18.628 Z m 146.633,4.954 -1.507,-2.62 v 0.002 l -2.85,-4.956 h -3.013 l 4.358,7.574 -4.358,7.573 h 3.013 l 2.85,-4.954 1.507,-2.62 z m 4.284,0 1.508,-2.62 v 0.002 l 2.853,-4.956 h 3.009 l -4.354,7.574 4.354,7.573 h -3.009 l -2.853,-4.954 -1.508,-2.62 z M 82.204,12.524 h 2.375 l 8.712,15.147 H 90.28 l -6.893,-11.98 -6.885,11.98 h -3.01 l 8.713,-15.147 z m 61.311,0 h 2.375 l 8.712,15.147 h -3.01 l -6.895,-11.98 -6.882,11.98 h -3.013 z"
           id="path4" />
      </g>
    </g>
  </g>
  <path
     fill="#000000"
     stroke="#ffffff"
     stroke-width="1.87162"
     d="m 180.30671,3.2092235 h 89.74991 V 37.264598 h -89.74991 z"
     vector-effect="non-scaling-stroke"
     id="path12" />
  <path
     fill="#ffffff"
     d="m 195.32203,27.180622 v -1.158779 h 3.59016 c 0.89021,0 1.66511,-0.13174 2.32666,-0.397014 a 4.9132519,4.5060638 0 0 0 1.69638,-1.075433 5.0686233,4.6485586 0 0 0 1.02799,-1.588056 6.2011728,5.6872475 0 0 0 0.34299,-1.90262 c 0,-0.695446 -0.12019,-1.33981 -0.36058,-1.935779 a 4.8692789,4.465735 0 0 0 -1.02897,-1.571924 4.5272665,4.1520671 0 0 0 -1.6954,-1.042274 c -0.66155,-0.241972 -1.43157,-0.363855 -2.30907,-0.363855 h -3.59016 v -1.157882 h 3.44553 c 1.17848,0 2.20061,0.164899 3.06737,0.495595 0.86578,0.331592 1.58693,0.783274 2.16445,1.356838 a 5.9216998,5.430936 0 0 1 1.28108,1.90262 6.8891062,6.3181682 0 0 1 0.41432,2.150866 v 0.314564 c 0,0.716955 -0.13778,1.428533 -0.41432,2.134734 a 6.4396043,5.9059189 0 0 1 -1.26349,1.935779 c -0.56481,0.573564 -1.28695,1.036897 -2.16445,1.389101 -0.86578,0.342346 -1.89378,0.513519 -3.08496,0.513519 z m -1.0104,0 V 14.985213 h 1.37098 v 12.194513 h -1.37098 z m 23.36042,0.215087 c -1.14232,0 -2.13415,-0.188201 -2.97648,-0.56281 a 6.1298388,5.6218254 0 0 1 -2.09214,-1.489475 7.1412182,6.5493862 0 0 1 -1.24492,-2.018229 7.0503406,6.4660402 0 0 1 -0.41531,-2.133838 v -0.298432 c 0,-0.738464 0.13876,-1.472447 0.41531,-2.200157 a 6.7659818,6.2052477 0 0 1 1.28108,-2.002097 6.1269072,5.6191368 0 0 1 2.1107,-1.423157 c 0.84135,-0.363854 1.8156,-0.545782 2.92176,-0.545782 1.11887,0 2.09312,0.181928 2.92274,0.546679 a 6.1269072,5.6191368 0 0 1 2.11071,1.42226 6.5119154,5.9722373 0 0 1 1.26251,2.002097 6.9575087,6.3809017 0 0 1 0.43289,2.200157 v 0.314564 c 0,0.69455 -0.13778,1.407024 -0.41432,2.134734 a 6.7552328,6.1953896 0 0 1 -1.24493,2.001201 6.1239757,5.6164482 0 0 1 -2.09311,1.489475 c -0.84135,0.374609 -1.83319,0.56281 -2.97649,0.56281 z m 0,-1.158779 c 0.84233,0 1.59378,-0.138014 2.25533,-0.413146 a 5.0246502,4.6082299 0 0 0 1.67782,-1.158779 5.8425484,5.3583443 0 0 0 1.04655,-1.670505 c 0.24039,-0.618374 0.36058,-1.263634 0.36058,-1.93578 0,-0.7062 -0.12019,-1.367592 -0.36058,-1.985966 a 5.2650361,4.8286936 0 0 0 -1.06512,-1.637346 4.82042,4.4209253 0 0 0 -1.67684,-1.141751 c -0.66155,-0.276028 -1.40714,-0.414042 -2.23774,-0.414042 -0.81789,0 -1.55762,0.138014 -2.21819,0.414042 a 5.0060839,4.5912022 0 0 0 -1.69638,1.141751 5.6676335,5.1979256 0 0 0 -1.06415,1.638243 6.3926997,5.8629016 0 0 0 -0.36058,1.985069 c 0,0.672146 0.12019,1.317406 0.36058,1.93578 0.24039,0.618374 0.58924,1.174014 1.04656,1.670505 0.45634,0.485738 1.01626,0.871997 1.67781,1.158779 0.67328,0.275132 1.42473,0.413146 2.25435,0.413146 z m 18.72958,1.158779 c -1.17848,0 -2.18888,-0.188201 -3.03121,-0.56281 -0.82962,-0.385364 -1.50876,-0.887232 -2.03839,-1.505606 a 6.8910606,6.3199605 0 0 1 -1.13646,-2.002098 7.9503217,7.2914349 0 0 1 -0.36058,-2.117706 v -0.313668 c 0,-0.73936 0.12019,-1.473343 0.36058,-2.201053 a 6.6770586,6.123694 0 0 1 1.15502,-2.002097 c 0.52866,-0.595969 1.20193,-1.070056 2.01983,-1.423157 0.8179,-0.363854 1.78628,-0.545782 2.90515,-0.545782 1.1306,0 2.10387,0.181928 2.92176,0.546679 0.83061,0.362958 1.49216,0.876477 1.98465,1.537869 0.49348,0.650636 0.79347,1.423156 0.90194,2.316661 h -1.38857 c -0.0967,-0.716955 -0.34885,-1.312924 -0.75829,-1.787011 a 3.7719078,3.4593091 0 0 0 -1.56935,-1.091564 c -0.62539,-0.242869 -1.3231,-0.364751 -2.09214,-0.364751 -0.8306,0 -1.56348,0.138014 -2.20158,0.414042 a 4.2536566,3.9011328 0 0 0 -1.56935,1.124723 5.3881605,4.9416141 0 0 0 -0.95568,1.654374 7.0210253,6.4391544 0 0 0 -0.3254,1.985966 c 0,0.672146 0.1026,1.317406 0.30683,1.93578 0.21694,0.618374 0.54136,1.174014 0.97425,1.670505 0.43289,0.485738 0.97425,0.871997 1.62407,1.158779 0.64885,0.275132 1.40714,0.413146 2.27292,0.413146 1.2029,0 2.21233,-0.275132 3.03023,-0.827187 0.8179,-0.561914 1.3231,-1.367593 1.5156,-2.415243 h 1.38955 a 5.8806583,5.3932959 0 0 1 -0.93809,2.249447 c -0.49348,0.663183 -1.16089,1.186561 -2.00322,1.57282 -0.82962,0.385364 -1.82732,0.578942 -2.99407,0.578942 z m 16.6091,0 c -1.10617,0 -2.0384,-0.160419 -2.79571,-0.48036 -0.75829,-0.330696 -1.33483,-0.783274 -1.73254,-1.356838 -0.38403,-0.584319 -0.57653,-1.240333 -0.57653,-1.968939 h 1.37098 c 0,0.463333 0.12019,0.899779 0.36058,1.307548 0.25211,0.397014 0.64982,0.722332 1.1902,0.976851 0.55406,0.241973 1.28108,0.362959 2.18302,0.362959 0.82962,0 1.5156,-0.110232 2.05696,-0.330696 0.55308,-0.220464 0.96154,-0.518 1.22635,-0.893505 a 2.3940866,2.1956755 0 0 0 0.4153,-1.257361 c 0,-0.584318 -0.25308,-1.070055 -0.75829,-1.455419 -0.49249,-0.39791 -1.23808,-0.634505 -2.23676,-0.711578 l -1.5156,-0.132637 c -1.12962,-0.08783 -2.03253,-0.407768 -2.70581,-0.958927 -0.66155,-0.56281 -0.99183,-1.30217 -0.99183,-2.218081 0,-0.69455 0.1798,-1.30665 0.54135,-1.836301 0.36058,-0.528755 0.87165,-0.948174 1.5332,-1.25736 0.67327,-0.309187 1.47944,-0.463333 2.41754,-0.463333 0.94981,0 1.76185,0.160419 2.43512,0.48036 0.68598,0.308291 1.20877,0.738464 1.56935,1.29052 0.36058,0.551159 0.54136,1.191042 0.54136,1.918751 h -1.37098 a 2.9217628,2.6796203 0 0 0 -0.32443,-1.241229 c -0.21693,-0.385363 -0.55992,-0.69455 -1.02896,-0.925768 -0.46905,-0.242869 -1.07588,-0.364751 -1.82146,-0.364751 -0.70944,0 -1.29867,0.110232 -1.76772,0.331592 -0.45732,0.220463 -0.80031,0.512623 -1.02897,0.876478 a 2.6774682,2.4555717 0 0 0 -0.32442,1.191938 c 0,0.539508 0.21009,0.997464 0.63126,1.372969 0.42116,0.374609 1.02799,0.589696 1.82243,0.64526 l 1.51463,0.13174 c 0.89021,0.06632 1.6485,0.248246 2.27389,0.546679 0.63712,0.286782 1.12376,0.666768 1.46088,1.140855 0.33713,0.463332 0.50521,1.01001 0.50521,1.638242 0,0.706201 -0.2101,1.33533 -0.63126,1.886489 -0.40944,0.551159 -0.99281,0.981332 -1.75013,1.290519 -0.75731,0.308291 -1.65338,0.463333 -2.68821,0.463333 z"
     id="path14"
     style="stroke-width:0.935811" />
  <defs
     id="defs25">
    <clipPath
       id="a">
      <path
         fill="var(--ds-background-body)"
         d="M16.02 12.524h160.895v15.147H16.02z"
         id="path16" />
    </clipPath>
    <clipPath
       id="b">
      <path
         fill="var(--ds-background-body)"
         d="M16.02 12.524h160.934v15.147H16.02z"
         id="path19" />
    </clipPath>
    <clipPath
       id="c">
      <path
         fill="var(--ds-background-body)"
         d="M16.02 12.524h160.895v15.147H16.02z"
         id="path22" />
    </clipPath>
  </defs>
</svg>
